<svg enable-background="new 0 0 122.88 95.94" viewBox="0 0 122.88 95.94" xmlns="http://www.w3.org/2000/svg"><path clip-rule="evenodd" d="m91.88 1.54c5.26 1.4 10.28 3.83 14.67 6.98 12.89 9.25 16.75 20.66 16.3 36.29-.24 8.37-2.18 16.52-4.96 22.09-21.59 43.19-109.9 35.5-117.36-5.22-.53-2.9-.56-5.91-.52-9.69.06-4.9.14-11.56 3.19-15.52 3.09-4.03 8.54-5.63 15.32-5.85 7.41.51 14.26-1.92 20.74-6.81 16.68-12.58 27.58-28.93 52.62-22.27zm2.57 46.35c0 4.12-4.74 7.45-10.59 7.45s-10.59-3.34-10.59-7.45c0-4.12 4.74-7.45 10.59-7.45 5.84 0 10.59 3.34 10.59 7.45zm8.89-15.94c3.71 2.99 6.72 6.66 8.51 10.75 4.92 11.24-1.06 21.35-8.56 29.62-6.02 5.77-13.83 9.7-23.52 11.73-8.87 1.85-19.3 2.11-31.36.71-7.78-.9-14.4-2.53-19.92-4.87-6.36-2.7-16.54-9.71-18.92-16.46-1.85-5.26.95-9.72 9.45-9.76 29.82.51 33.32-25.98 57.82-29.49 9.5-1.37 19.1 1.8 26.5 7.77z" fill-rule="evenodd"/></svg>