<svg enable-background="new 0 0 122.88 81.77" viewBox="0 0 122.88 81.77" xmlns="http://www.w3.org/2000/svg"><path clip-rule="evenodd" d="m18 33.84c3.46-2.36 5.2-5.45 4.9-12.52v-18.18c-.03-2.54-4.64-2.85-4.87 0l-.18 14.75c-.01 2.76-4.16 2.85-4.15 0l.18-15.25c-.05-2.73-4.45-3-4.51 0 0 4.23-.18 11.02-.18 15.25.22 2.67-3.63 3.02-3.53 0l.19-15.16c-.1-2.06-2.36-2.79-3.9-1.83-1.64 1.05-1.31 3.15-1.38 4.92l-.57 17.4c.09 5.06 1.42 9.17 5.38 10.92.6.26 1.44.47 2.41.62l-1.37 42.42c-.08 2.52 1.98 4.57 4.39 4.57h.55c2.72 0 5.01-2.32 4.94-5.15l-1.2-41.86c1.26-.2 2.31-.49 2.9-.9zm95.36 10.82h1.48c0 10.83-.04 23.34-.39 34.12-.15 4.13 7.59 3.97 7.45-.43l-.29-33.69h1.27v-44.66c-15.98 2.45-10.47 33.39-9.52 44.66zm-7.8-3.55c0 10.91-3.84 20.22-11.52 27.91-7.7 7.7-17 11.55-27.91 11.55-10.86 0-20.17-3.84-27.88-11.55-7.7-7.69-11.57-17-11.57-27.91 0-10.88 3.86-20.15 11.57-27.86 7.73-7.7 17.02-11.57 27.88-11.57 10.91 0 20.21 3.86 27.91 11.57 7.67 7.7 11.52 16.98 11.52 27.86zm-16.47-.04c0 6.36-2.23 11.78-6.73 16.28-4.48 4.48-9.91 6.73-16.26 6.73-6.31 0-11.73-2.25-16.22-6.73-4.49-4.5-6.73-9.92-6.73-16.28 0-6.31 2.24-11.73 6.73-16.21 4.5-4.48 9.91-6.73 16.22-6.73 12.76.02 22.99 10.16 22.99 22.94zm-2.9-20.01c-5.53-5.53-12.23-8.28-20.09-8.28-7.84 0-14.52 2.75-20.01 8.28-5.53 5.53-8.31 12.21-8.31 20.01 0 7.83 2.78 14.5 8.31 20.06 5.5 5.54 12.17 8.32 20.01 8.32 7.85 0 14.55-2.78 20.09-8.32 5.51-5.55 8.28-12.23 8.28-20.06 0-7.81-2.76-14.48-8.28-20.01z" fill-rule="evenodd"/></svg>