<svg enable-background="new 0 0 122.79 122.88" viewBox="0 0 122.79 122.88" xmlns="http://www.w3.org/2000/svg"><path d="m3.15 107.93c-2.1-2.1-3.15-4.86-3.15-7.61s1.05-5.51 3.15-7.61 4.86-3.15 7.61-3.15 5.51 1.05 7.61 3.15c.08.08.18.18.27.28l15.72-15.89c-.13-.14-.27-.28-.4-.44-.26-.31-.52-.65-.78-1.03l-.02-.03c-1.48-2.21-1.68-4.37-1.24-6.46.42-2.05 1.44-4 2.44-5.9l.02-.03c.2-.38.4-.76.62-1.21.2-.41.41-.81.62-1.2.23-.42.44-.81.64-1.16.21-.36.43-.75.69-1.16.25-.4.49-.79.74-1.16.44-.66 1.03-1.53 1.6-2.37l.01-.02c2.72-4.02 5.06-7.48 6.98-12.57.27-.7.52-1.4.76-2.1.25-.7.48-1.4.71-2.1.24-.74.46-1.44.67-2.13.19-.63.39-1.32.6-2.06 1.47-5.14 2.84-9.86 4.5-14.06 1.66-4.23 3.6-7.92 6.19-10.97 2.67-3.15 5.96-5.56 10.22-7.08 4.24-1.51 9.43-2.15 15.95-1.76.77.05 1.52.11 2.26.19s1.48.19 2.2.31 1.43.26 2.12.42 1.36.33 2 .52c1.49.44 2.97.99 4.41 1.62 1.44.64 2.86 1.37 4.25 2.2 1.37.82 2.73 1.73 4.08 2.75 1.34 1.02 2.65 2.12 3.93 3.33.07.07.14.14.21.2l.04.04c1.19 1.27 2.28 2.57 3.29 3.9 1.02 1.34 1.94 2.71 2.76 4.09.83 1.4 1.57 2.83 2.21 4.27.64 1.45 1.18 2.91 1.62 4.4.18.62.36 1.28.52 1.98.16.69.3 1.41.42 2.14.12.72.22 1.45.3 2.19s.15 1.5.19 2.27c.39 6.51-.25 11.71-1.76 15.94-1.52 4.26-3.93 7.55-7.08 10.22-3.05 2.59-6.75 4.53-10.97 6.19-4.2 1.65-8.92 3.03-14.06 4.5-.68.2-1.38.4-2.09.61l-.04.01c-.67.2-1.35.42-2.05.64-.66.21-1.34.44-2.04.69-.69.24-1.41.5-2.16.78-2.55.96-4.68 2.02-6.68 3.18-1.99 1.16-3.87 2.43-5.89 3.79l-.15.1c-.9.61-1.8 1.22-2.23 1.51-.36.24-.74.48-1.13.72-.4.25-.8.48-1.19.71-.37.21-.78.44-1.2.66-.39.21-.77.41-1.15.6-.19.09-.41.21-.66.34l-.58.3c-1.9.99-3.85 2.01-5.9 2.44-2.1.43-4.27.24-6.49-1.26-.37-.25-.71-.52-1.02-.82-.17-.16-.33-.33-.49-.5l-15.86 15.86c.15.13.27.25.38.36 2.1 2.1 3.15 4.86 3.15 7.61s-1.05 5.51-3.15 7.61-4.86 3.15-7.61 3.15-5.51-1.05-7.61-3.15c-1.25-1.25-2.13-2.73-2.64-4.31-.46-1.42-.61-2.92-.46-4.39-1.47.15-2.97 0-4.39-.46-1.6-.49-3.09-1.37-4.34-2.62zm35.46-42.44c-.7 1.34-1.42 2.73-1.77 4.03-.33 1.23-.33 2.4.35 3.42.44.66.9 1.04 1.39 1.28.51.26 1.09.39 1.73.53.02 0 .1.02.12.03.61.14 1.23.33 1.87.62.65.3 1.31.71 1.97 1.29.61.53 1.2 1.21 1.76 2.07.55.84 1.08 1.87 1.57 3.14.17.45.35.9.54 1.32.18.4.36.77.56 1.11.16.27.34.52.53.74.18.21.39.39.61.54 1.01.68 2.19.68 3.42.35 1.32-.35 2.71-1.08 4.06-1.79l.7-.37c.18-.09.38-.2.61-.31.37-.19.74-.37 1.09-.56.33-.17.67-.36 1.03-.57.35-.2.69-.4 1.01-.6.33-.2.67-.42 1.04-.67.7-.46 1.13-.75 1.44-.96l.92-.62s.01-.01.02-.01c4.28-2.9 7.96-5.38 13.55-7.49.7-.26 1.42-.52 2.16-.78.73-.25 1.48-.51 2.25-.76.78-.25 1.5-.48 2.18-.68l.04-.01c.77-.23 1.48-.44 2.12-.63 4.9-1.4 9.4-2.71 13.32-4.23 3.9-1.52 7.26-3.25 9.91-5.5 2.56-2.17 4.51-4.88 5.74-8.45 1.24-3.6 1.75-8.09 1.42-13.76-.04-.67-.1-1.34-.17-2s-.16-1.31-.27-1.95c-.1-.61-.22-1.21-.36-1.81-.13-.59-.29-1.17-.46-1.73-.39-1.3-.86-2.59-1.42-3.85s-1.2-2.5-1.92-3.72c-.71-1.19-1.5-2.36-2.37-3.52-.86-1.15-1.81-2.28-2.83-3.39-.1-.07-.19-.15-.28-.24s-.17-.18-.24-.28c-1.11-1.02-2.23-1.96-3.37-2.82-1.15-.87-2.33-1.66-3.53-2.37-1.23-.73-2.48-1.38-3.74-1.93-1.26-.56-2.55-1.03-3.84-1.42-.56-.18-1.13-.33-1.71-.46-.59-.13-1.2-.25-1.84-.36-.63-.11-1.28-.2-1.94-.27s-1.33-.13-2.01-.17c-5.67-.34-10.15.17-13.75 1.42-3.57 1.23-6.28 3.18-8.45 5.74-2.25 2.66-3.99 6.01-5.5 9.92-1.52 3.92-2.83 8.42-4.23 13.32-.21.75-.43 1.49-.64 2.2-.2.68-.43 1.39-.67 2.15-.24.73-.48 1.46-.74 2.19-.26.74-.53 1.48-.81 2.22-2.11 5.61-4.6 9.28-7.49 13.56l-.02.03c-.46.68-.93 1.37-1.57 2.33-.21.31-.42.65-.64 1.01-.21.35-.42.7-.62 1.04-.22.39-.42.75-.59 1.07-.19.36-.37.7-.54 1.05-.19.38-.43.83-.66 1.28z"/></svg>