<svg enable-background="new 0 0 113.6 122.88" viewBox="0 0 113.6 122.88" xmlns="http://www.w3.org/2000/svg"><path clip-rule="evenodd" d="m.76 73.63-.05-.02.08-.08c.14-.41.41-.75.75-.99l56.28-48.89c.24-.59.53-1.18.86-1.75 2.19-3.8 5.86-6.22 9.86-6.96-2.4-4.22-5.73-7.77-9.61-9.84l-.16-.08c-1.3-.68-1.81-2.29-1.12-3.6.68-1.3 2.29-1.81 3.6-1.12l.17.09.01-.01c1.15.59 2.26 1.29 3.32 2.08 4.16 3.12 7.58 7.62 9.89 12.67 1.27.32 2.51.82 3.7 1.5 2.58 1.49 4.52 3.65 5.73 6.14v.01l.06.14c.93 2.04 1.38 4.27 1.3 6.52 8.46 4.32 15.36 10.75 20.69 19.01.2.2.37.45.47.74l.01.02.06.09h-.02c4.89 10.76 7.03 21.15 6.94 31.22-.08 10.16-2.43 19.97-6.49 29.52-.29.68-.92 1.12-1.61 1.19l-103.28 11.64c-1.09.12-2.07-.67-2.19-1.76 0-.07-.01-.14-.01-.21 0-27.1.32-33.94.68-46.79 0-.15.03-.32.08-.48zm61.5-50.33-.01.01-.01.02-.01.01-.01.01-.01.02-.01.01-.01.02-.01.01-.01.02-.01.02-.01.01-.01.02-.01.01-.01.01-.01.02-.01.02-.01.01-.01.02-.01.02-.01.02-.01.01-.01.02v.01l-.01.01-.01.02-.01.02-.01.02-.01.01.01-.02-.01.02-.01.02-.01.02-.01.02-.04.06-.02.04-.01.02-.03.06-.01.02-.02.04-.03.06-.03.06-.02.05-.01.01-.03.06-.01.03-.02.03-.03.06v.01l-.03.05-.03.05v.01l-.03.06-.02.03-.01.03-.03.06-.01.02-.02.05-.07.17-.01.02-.03.06-.01.02-.02.04-.03.06-.02.06-.02.04-.01.02-.02.06-.01.03-.04.1v.01l-.02.06-.04.13-.01.03-.01.03-.02.06v.01l-.02.05-.02.06v.01l-.04.09-.01.04-.01.03-.02.06v.02l-.01.05-.02.06-.02.06-.01.04-.02.09v.02l-.01.04-.02.06-.02.06-.01.05v.02l-.01.06-.01.03-.01.04-.01.06v.01l-.01.06-.03.06v.01l-.01.06-.01.03-.01.03-.01.06v.01l-.01.05-.01.06v.01l-.01.06v.04.03l-.01.06v.02l-.01.05-.01.06-.01.07v.04.02l-.01.07c-.11.97-.09 1.95.07 2.9.53 2.97 2.31 5.69 5.13 7.32 5.06 2.92 11.52 1.19 14.44-3.87.23-.4.43-.81.61-1.22l.03-.08.01-.02.02-.06.03-.08.01-.01.03-.07.03-.08.03-.08.03-.07v-.01l.03-.08.02-.06.01-.02.03-.08.02-.05.01-.04.03-.08.01-.04.01-.05.03-.08.01-.02.02-.06.02-.08v-.01l.02-.07.02-.08.02-.08.02-.07v-.01l.02-.08.01-.06v-.02l.02-.08.01-.05.01-.04.02-.08.01-.03.01-.05.02-.08v-.02l.01-.06.01-.08v-.01l.01-.07.01-.08.01-.08.01-.07v-.01l.01-.08.01-.06v-.03l.01-.08v-.04-.04l.01-.08v-.03-.05l.01-.08v-.02-.06-.08-.07-.08-.08-.08-.07-.02-.08-.06-.03-.08-.04-.04-.08-.03-.14-.02-.06-.08-.01-.08l-.01-.08-.01-.08v-.07-.02l-.01-.08-.01-.06v-.03l-.01-.08v-.04-.04l-.01-.08c-.13-1.09-.43-2.15-.89-3.15l-.05-.1c-.9-1.83-2.32-3.43-4.22-4.52l-.09-.05-.09-.05-.06-.03-.04-.02-.09-.05-.09-.05-.02-.01-.07-.04-.09-.04-.08-.04-.01-.01-.19-.09-.05-.02-.05-.02-.09-.04-.09-.04h-.01l-.08-.03-.09-.04-.07-.03-.03-.01-.1-.04-.09-.04-.03-.01-.06-.02-.1-.03-.09-.03-.1-.03-.1-.03-.06-.02-.04-.01-.1-.03-.09-.04-.02-.01-.08-.02-.1-.03-.08-.02h-.02l-.1-.02-.1-.02-.04-.01-.05-.01-.1-.02-.1-.02h-.01l-.09-.02-.1-.02-.07-.01h-.03l-.1-.02-.1-.02h-.03l-.17-.02-.09-.01h-.01l-.1-.01-.1-.01h-.06-.04l-.1-.01-.1-.01h-.02l-.08-.01-.18-.01h-.02-.1-.1-.04-.06-.1-.1-.09-.1-.07-.03-.1-.1-.03-.07l-.1.01-.02-.02h-.01l-.1.01c-3.17.26-6.18 1.94-8.03 4.79zm-5.38 7.68-47.75 39.91 91.19-22.81c-4.56-4.35-10.06-9.2-16.2-13.12-.18.39-.38.77-.59 1.14-3.97 6.87-12.75 9.23-19.62 5.26-3.83-2.21-6.25-5.91-6.97-9.94zm19.92 2.86c.4-.27.5-.81.24-1.21s-.81-.51-1.2-.24c-.99.66-2.01 1.16-3.05 1.49s-2.11.51-3.22.54c-.48.01-.86.4-.85.88s.4.86.88.85c1.27-.03 2.51-.23 3.71-.62 1.2-.38 2.37-.95 3.49-1.69zm-71.92 50.48c.7.35 1.4.73 2.09 1.1l.02.01c9.24 5.01 13.89.51 18.71-4.14 5.38-5.2 10.96-10.6 22.94-4.1 2.12 1.15 4.23 2.29 6.64 2.33s5.19-1 8.72-4.2l.26-.31c10.29-10.49 16.1-7.34 22.02-4.14 9.25 5.02 13.9.52 18.71-4.14.76-.74 1.53-1.48 2.31-2.19-.97-3.97-2.33-8-4.11-12.09-57.79 13.77-40.79 9.73-98.16 23.39-.03.81-.08 4.08-.15 8.48zm103.41-14.88c-.4.38-.79.76-1.19 1.15-5.38 5.2-10.96 10.6-22.94 4.1-2.12-1.15-4.23-2.29-6.64-2.33s-5.19 1-8.71 4.19l-.27.32c-10.29 10.48-16.1 7.34-22.02 4.13l-.02-.01c-9.24-5-13.89-.51-18.7 4.14-5.38 5.21-10.96 10.6-22.95 4.1l-.05-.04-.21 14.21c1.16.51 2.28 1.12 3.4 1.73l.02.01c9.25 5.02 13.9.52 18.71-4.14 5.38-5.2 10.96-10.6 22.94-4.1 2.12 1.15 4.23 2.29 6.65 2.33 2.41.04 5.19-1 8.72-4.2l.25-.29c10.3-10.5 16.11-7.35 22.03-4.14 9.25 5.01 13.9.52 18.71-4.14 1-.97 2.01-1.94 3.05-2.83.06-1.02.09-2.05.1-3.08.03-3.66-.25-7.36-.88-11.11zm.1 20.63-.24.23c-5.38 5.2-10.96 10.6-22.94 4.1-2.12-1.15-4.23-2.29-6.64-2.33s-5.19 1-8.72 4.2l-.26.31c-10.29 10.49-16.1 7.34-22.01 4.14-9.26-5.02-13.91-.52-18.72 4.13-5.38 5.2-10.96 10.6-22.95 4.1l-.02-.01c-.45-.25-.91-.49-1.37-.73-.06 4.89-.11 8.78-.11 10.19l99.07-11.14c2.32-5.65 3.99-11.37 4.91-17.19z" fill-rule="evenodd"/></svg>