<svg enable-background="new 0 0 122.88 105.37" viewBox="0 0 122.88 105.37" xmlns="http://www.w3.org/2000/svg"><path clip-rule="evenodd" d="m31.79 8.37c-.8 1.28-1.95 2.07-3.39 2.44 10.32 9.88 14.27 21.24 31.02 20.05 4.61-.49 8.93-1.19 12.95-1.9 11.89-2.1 25.14-6.64 34.6 2.99.85.86 1.63 1.8 2.32 2.84 13.39-7.89 8.96 12.52 13.59 18.42-6.69.71-8.85-17.9-11.63-14.58 4.07 6.41-5.4 19.97 3.26 34.03.91 1.48 2.42 3.5 1.43 5.3l-.28 13.85c1.08 1.42 1.8 2.12 1.94 5.41l-1.18 2.7-1.22.09c.61.84.57 2.11.09 3.67-3.52 1.27-4.73 1.02-8.1-.19.5-2.1 1.51-3.91 2.83-5.56 1.84-4.47 1.9-8.28 1.04-11.87-1.71-5.19-4.32-9.08-7.44-12.25.72 4.54-1.57 8.53-6.5 12.06l-4.24 8.76c.7 3.6.58 2.88-1 6.22-.69-1.24-1.3-1.4-1.79.09l-.6 3.01c-1.93 1.37-4.31 1.38-7.25-.28.92-3.11 2.21-4.96 3.04-6.69 1.69-1.57 3.25-4.44 4.03-6.59 6.73-13.56 3.64-23.31-.19-26.85-2.41-1.14-4-.09-6.33.7-6.06 2.07-10.73 3.43-25.51 1.65.34 2.02.21 4-.57 5.93.02 1.2.08 2.32.2 3.34.38 3.17 1.97 4.65 2.19 7.25.04.51.04 1.05 0 1.63-.17 2.26-.23 2.95-.14 5.28.08 2.12.08 4.31 1.03 5.64.99 1.38 1.78 2.47 1.24 4.37v1.32l-2.22-.65c.19 1.11.45 2.28.32 3.39-.32.58-.78 1.19-1.57 1.47-.99.35-1.81.5-2.64.51-.79 0-1.59-.13-2.55-.36-.74-.17-1.23-.65-1.61-1.06l2.83-4.9c2.16-7.28-.19-10.64-2.23-16.2l-1.72-4.52c-.81 5.03-1.9 9.93-3.67 14.51l1.04 4.8c-.7.62-.75 1.58.09 3.01l-2.26-.85c-.43.36-.55 1.39-.42 2.91.29 3.23-5.16 2.02-7.44 1.48.53-1.99 1.38-3.24 2.39-4.1.15-3.18 3-11.88 2.73-15.45-.23-1.27-.28-2.65-.2-4.12.24-4.46 1.5-5.72.32-11.51-.41-2.05-9.52-11.9-14.27-20.73-3.49-6.49-6.31-13.19-9.91-19.73-1.78.84-3.41 1.21-4.87 1.08-.78 3.95-1.24 6.03-5 8.41-.97-3.13-.49-6.04.75-8.45l-5.39.35c-.87.11-1.59-.46-1.68-1.15-.81-.03-1.11-.53-.96-1.92-2.56-1.77-.02-5.03 1.37-6.62l8.88-10.12c-1.74-.58-3.27-2.37-4.64-4.62 2.69-.22 5.11.38 7.82 1.74 3.67-4.98 10.54-7.63 16.6-7.2 1.69.12 3.34.47 4.94 1.06-7.54.18-12.35 2.5-15.27 6.02 6.48-3.84 13.73-6.21 21.24-1.7-6.73-.82-12.51-.39-14.62 2.51 1.43.08 2.96.08 4.38.43zm-15.15 6.35c.97-.1 1.81.28 1.86.84.06.56-.69 1.1-1.66 1.19-.97.1-1.81-.28-1.86-.84-.05-.55.69-1.09 1.66-1.19z" fill-rule="evenodd"/></svg>