<svg enable-background="new 0 0 98.42 122.88" viewBox="0 0 98.42 122.88" xmlns="http://www.w3.org/2000/svg"><path d="m39.65 92.48c-.64-.81-.51-1.99.3-2.63s1.99-.51 2.63.3c2.07 2.59 4.05 4.15 5.9 4.29 1.75.13 3.64-1.1 5.7-4.06.59-.85 1.76-1.06 2.61-.47s1.06 1.76.47 2.61c-2.91 4.18-5.93 5.89-9.05 5.66-3.01-.23-5.85-2.3-8.56-5.7zm25.22-35.04c2.19 0 3.96 1.77 3.96 3.96s-1.77 3.96-3.96 3.96-3.96-1.77-3.96-3.96 1.77-3.96 3.96-3.96zm-32.65 0c2.19 0 3.96 1.77 3.96 3.96s-1.77 3.96-3.96 3.96-3.96-1.77-3.96-3.96 1.78-3.96 3.96-3.96zm39.82-8.19c-1.3.2-2.51.14-3.74-.2-1.33-.36-2.64-1.03-4.09-2.04-2.39 3.85-5.81 6.52-9.58 7.97v.01c-2.33.89-4.8 1.31-7.25 1.25-2.45-.07-4.87-.63-7.09-1.7h-.01c-3.03-1.45-5.68-3.84-7.52-7.2-1.2.88-2.43 1.42-3.76 1.7-1.34.28-2.71.27-4.19.07-.03 1.37-.07 2.66-.12 3.94-.36 10.66-.69 20.27 9.05 31.65.33.39.48.87.45 1.34-.11 2.78.13 5.29.7 7.48s1.46 4.07 2.64 5.61c.51.67 1.09 1.26 1.73 1.79 2.47 2.04 5.72 2.96 9.01 2.88 3.33-.08 6.68-1.18 9.27-3.18l.11-.08c.7-.55 1.36-1.19 1.96-1.91 1.26-1.52 2.18-3.33 2.7-5.44.5-2.06.62-4.41.29-7.05-.07-.56.12-1.1.47-1.49 9.71-10.67 9.41-20.55 9.08-31.42-.04-1.34-.08-2.69-.11-3.98zm-51.11 14.05c-4.64-.11-8.6-.76-11.79-2.04-.04.09-.08.17-.14.25-.99 1.52-1.47 3.02-1.46 4.48.01 1.47.51 2.98 1.48 4.52.42.66.37 1.48-.06 2.08-4.16 6.54-5.39 11.77-3.91 15.77 1.47 3.99 5.76 6.98 12.63 9.04.72.22 1.22.83 1.32 1.53.59 3.97 1.96 7.02 4.24 8.96s5.6 2.87 10.1 2.62c.62-.03 1.19.24 1.55.68 4.25 5.19 8.58 7.96 12.99 7.94 4.46-.02 9.22-2.87 14.33-8.92.45-.54 1.15-.75 1.79-.63 3.88.76 6.98.18 9.39-1.56 2.51-1.82 4.39-4.93 5.73-9.15.18-.58.63-1.01 1.17-1.2 6.44-2.25 10.36-5.32 11.69-9.24 1.34-3.95.13-8.97-3.67-15.09-.37-.59-.37-1.3-.06-1.87.73-1.63 1.19-3.33 1.3-5.12.1-1.58-.08-3.23-.59-4.97-3.5 1.33-7.89 1.94-13.06 1.93-.44 7.68-2.43 15.19-9.5 23.22.27 2.77.09 5.28-.46 7.53-.66 2.69-1.84 5.01-3.44 6.95-.75.9-1.61 1.73-2.56 2.47l-.12.1c-3.22 2.47-7.36 3.84-11.46 3.94-4.15.1-8.3-1.09-11.49-3.73-.84-.69-1.62-1.49-2.31-2.4-1.48-1.93-2.59-4.26-3.29-6.94-.61-2.36-.9-5-.84-7.88-7-8.39-9.03-15.81-9.5-23.27zm-15.11-3.77c-3.54-2.41-5.57-6.04-5.82-11.1 5.88-1.12 12.34-1.15 19.19-.45-1.81-.64-3.37-1.63-4.66-2.84-1.77-1.67-3.02-3.76-3.65-5.97-.64-2.24-.65-4.61.06-6.81.5-1.54 1.34-2.98 2.56-4.21-3.14-2.6-4.18-5.96-3.74-9.3.28-2.13 1.19-4.22 2.56-6.06 1.34-1.81 3.14-3.39 5.22-4.54 4.51-2.49 10.38-3 16 .54 2.2-3.37 5.16-5.83 8.43-7.27 2.32-1.02 4.8-1.54 7.28-1.5 2.5.04 4.97.63 7.26 1.82 2.82 1.46 5.36 3.82 7.29 7.13 4.15-3.31 9.25-3.69 13.59-2.21 1.96.67 3.77 1.72 5.26 3.05 1.52 1.36 2.73 3.01 3.47 4.86 1.46 3.69 1.06 8.07-2.46 12.31 2.27 2.43 3.36 5.38 3.43 8.33.04 1.54-.2 3.06-.69 4.5s-1.23 2.8-2.21 4.01c-1.6 1.99-3.81 3.55-6.51 4.35 7.43-.87 14.43-.92 20.75.28-.26 5.17-2.37 8.85-6.06 11.25.79 2.42 1.07 4.71.94 6.89-.12 1.96-.57 3.83-1.29 5.62 4.02 6.76 5.17 12.56 3.53 17.43-1.65 4.89-6.06 8.64-13.13 11.27-1.58 4.56-3.81 8-6.8 10.17-3.03 2.2-6.75 3.05-11.22 2.39-5.62 6.38-11.11 9.39-16.47 9.42-5.41.03-10.5-2.96-15.31-8.58-5.05.12-8.92-1.13-11.77-3.56-2.78-2.37-4.51-5.78-5.34-10.09-7.43-2.44-12.16-6.07-13.98-11.01-1.82-4.93-.66-10.97 3.73-18.18-.96-1.8-1.45-3.62-1.46-5.47-.01-2.18.65-4.34 2.02-6.47zm68.18-14.56c3.16-.12 5.65-1.52 7.26-3.52.69-.86 1.22-1.83 1.57-2.87s.53-2.12.5-3.21c-.06-2.47-1.15-4.96-3.5-6.85-.81-.65-.93-1.83-.29-2.63.05-.06.11-.13.17-.18 3.44-3.43 4-6.9 2.89-9.69-.51-1.29-1.37-2.47-2.47-3.44-1.13-1-2.49-1.8-3.97-2.3-3.75-1.28-8.25-.7-11.51 2.98-.68.77-1.87.85-2.64.16-.21-.19-.37-.41-.47-.65-1.64-3.72-4.05-6.23-6.76-7.63-1.77-.92-3.68-1.38-5.59-1.41-1.93-.03-3.88.38-5.72 1.19-3.09 1.37-5.86 3.88-7.69 7.41-.47.92-1.61 1.28-2.52.81-.11-.06-.21-.12-.31-.2-4.73-3.76-9.81-3.53-13.61-1.43-1.61.89-2.99 2.1-4.01 3.48-1 1.35-1.66 2.84-1.86 4.32-.34 2.58.78 5.22 4.08 7.06.9.5 1.23 1.64.73 2.55-.16.29-.39.52-.65.68-1.62 1.02-2.63 2.4-3.12 3.9-.47 1.47-.46 3.09-.02 4.64.45 1.58 1.34 3.08 2.61 4.27 1.43 1.35 3.35 2.31 5.66 2.57.21-.02.42-.01.64.04l.16.04c.09.01.17.03.25.06 1.71.38 3.17.52 4.44.25 1.28-.27 2.49-1 3.74-2.39.19-.21.44-.39.72-.5.96-.37 2.05.11 2.41 1.08 1.41 3.68 3.88 6.2 6.78 7.6 1.74.84 3.64 1.28 5.57 1.33 1.94.05 3.92-.29 5.81-1.01v.01c3.52-1.35 6.69-4.07 8.62-8.07.06-.12.13-.24.22-.34.64-.81 1.82-.95 2.63-.31 1.81 1.43 3.21 2.31 4.51 2.67 1.16.31 2.37.2 3.91-.31.22-.09.46-.14.71-.14z"/></svg>