<svg enable-background="new 0 0 122.88 98.89" viewBox="0 0 122.88 98.89" xmlns="http://www.w3.org/2000/svg"><path clip-rule="evenodd" d="m1.72 92h119.43c.94 0 1.72.79 1.72 1.72v3.44c0 .93-.78 1.72-1.72 1.72h-119.43c-.94.01-1.72-.76-1.72-1.71v-3.44c0-.95.78-1.73 1.72-1.73zm64.68-72.27c31.57 2.52 56.4 25.25 56.4 57.47 0 2.62-.17 5.19-.48 7.72h-121.75c-.32-2.56-.48-5.14-.48-7.73 0-32.37 25.06-55.19 56.83-57.5v-9.77h-9.68c-.98 0-1.78-.8-1.78-1.78v-6.36c0-.98.8-1.78 1.78-1.78h28.7c.98 0 1.78.8 1.78 1.78v6.37c0 .98-.8 1.78-1.78 1.78h-9.54z" fill-rule="evenodd"/></svg>