<svg enable-background="new 0 0 122.88 103.85" viewBox="0 0 122.88 103.85" xmlns="http://www.w3.org/2000/svg"><path d="m63.97 63.46c.39-2.74 1.67-5.2 3.54-7.06 2.26-2.26 5.39-3.67 8.85-3.67s6.58 1.4 8.85 3.67c1.87 1.87 3.15 4.32 3.54 7.06h7.33c-.59-4.36-2.65-8.25-5.66-11.16-3.44-3.33-8.13-5.38-13.3-5.38-5.16 0-9.85 2.04-13.29 5.36-3.02 2.91-5.08 6.81-5.67 11.18zm6.15-4.45c-1.19 1.19-2.05 2.73-2.4 4.45h17.27c-.35-1.72-1.21-3.26-2.4-4.45-1.6-1.6-3.8-2.58-6.23-2.58-2.44 0-4.65.98-6.24 2.58zm-58.06-44.97c-1.02 0-1.85-.83-1.85-1.85s.83-1.85 1.85-1.85h1.55v-2.64c0-2.1.82-4.01 2.13-5.4 1.35-1.42 3.21-2.3 5.26-2.3s3.91.88 5.25 2.31c.43.45.8.96 1.11 1.51 1.28-1.13 2.93-1.8 4.73-1.8 2.05 0 3.91.88 5.25 2.31 1.32 1.39 2.13 3.3 2.13 5.4v.63h5.37c.12 0 .25.01.36.04 1.91.3 3.78.98 5.58 2.11 1.56.98 3.08 2.3 4.53 4.01l56.1-1.91c4.63-.35 8.33 2.33 10.17 5.88.69 1.33 1.13 2.79 1.25 4.25.13 1.5-.06 3.01-.62 4.42-1.32 3.36-4.64 6.05-10.57 6.4-.08 0-.16 0-.23 0l-56.11-3.93c-1.45 1.8-2.95 3.24-4.5 4.26l-.13.08c-1.86 1.19-3.81 1.81-5.85 1.77v.01h-5.37v5.3c3.76-.85 7.69-.72 11.39.31 3.93 1.09 7.6 3.18 10.52 6.19 4.09-3.9 9.64-6.3 15.73-6.3 6.16 0 11.75 2.44 15.86 6.42 3.8 3.68 6.33 8.67 6.86 14.25 1.1.4 2.07 1.08 2.83 1.93l.1.13c1.02 1.21 1.64 2.77 1.64 4.46 0 1.26-.34 2.45-.94 3.47h2.28c1.85 0 3.54.76 4.76 1.98l.01.01c1.22 1.22 1.98 2.91 1.98 4.76 0 1.18-.3 2.28-.84 3.25h6.98c1.02 0 1.85.83 1.85 1.85 0 .56-.25 1.06-.65 1.4-3.27 3.25-6.84 6.1-10.76 8.53-3.95 2.45-8.25 4.48-12.92 6.04-1.28.43-2.55.81-3.81 1.15s-2.58.66-3.96.95c-.13.03-.25.04-.38.04h-54.3c-.21 0-.41-.04-.6-.1-1.46-.35-2.8-.7-4.01-1.05-1.31-.37-2.64-.79-4-1.24-1.87-.63-3.67-1.3-5.4-2.01-1.76-.73-3.43-1.49-5-2.29-2.8-1.42-5.37-2.98-7.73-4.67-2.36-1.7-4.49-3.52-6.4-5.47-.71-.73-.7-1.89.02-2.61.36-.35.83-.53 1.29-.53v-.01h7.47c-.54-.96-.84-2.07-.84-3.25 0-1.86.76-3.54 1.98-4.77l.12-.11c.84-.8 1.88-1.39 3.04-1.68v-36.36h-2.03c-1.02 0-1.85-.83-1.85-1.85s.83-1.85 1.85-1.85h2.03v-3.97h-1.9c-1.02 0-1.85-.83-1.85-1.85s.83-1.85 1.85-1.85h1.9v-4.65h-1.9c-1.02 0-1.85-.83-1.85-1.85s.83-1.85 1.85-1.85h1.9v-3.97h-1.56zm32.64 0h-5.24v3.97h3.18c1.02 0 1.85.83 1.85 1.85s-.83 1.85-1.85 1.85h-3.18v4.65h3.47c1.02 0 1.85.83 1.85 1.85s-.83 1.85-1.85 1.85h-3.47v3.97h5.37v.01h.04c1.28.03 2.55-.38 3.8-1.18l.11-.08c1.4-.92 2.78-2.3 4.13-4.09.35-.54.98-.88 1.67-.83l56.97 4c4.16-.28 6.4-1.97 7.23-4.05.34-.86.45-1.81.37-2.76-.09-.98-.38-1.96-.85-2.87-1.22-2.35-3.63-4.13-6.62-3.9l-57.16 1.95c-.56.02-1.13-.22-1.5-.7-1.36-1.72-2.76-2.99-4.19-3.89-1.34-.86-2.72-1.36-4.13-1.6zm-16.3-4.33c0 .11-.01.21-.03.31v54c.84-.36 1.76-.56 2.72-.56h4.67v-53.75c0-1.12-.43-2.14-1.12-2.87-.66-.7-1.57-1.14-2.56-1.14s-1.9.43-2.56 1.13c-.69.74-1.12 1.76-1.12 2.88zm11.07 37.11v6.61c1.48-.51 3.05-.76 4.62-.76 2.25 0 4.52.51 6.55 1.51l.1.05c1.93.97 3.63 2.39 4.85 4.22.79-2.24 1.92-4.32 3.33-6.18-2.48-2.63-5.64-4.46-9.03-5.4-3.4-.92-7.02-.97-10.42-.05zm0 10.61v6.03h14.24c-.2-1.06-.58-1.99-1.09-2.81-.85-1.35-2.09-2.4-3.52-3.12l-.09-.04c-1.5-.74-3.21-1.12-4.91-1.12-1.63 0-3.23.35-4.63 1.06zm-22.16-21.3v37.76h7.76c-.59-1.02-.93-2.21-.93-3.47 0-.46.05-.91.13-1.35l.02-.08c.09-.41.22-.82.38-1.21l.01-.03v-60.05c0-1.12-.43-2.14-1.12-2.87-.66-.7-1.57-1.13-2.56-1.13s-1.9.43-2.56 1.13c-.69.73-1.12 1.75-1.12 2.87v28.43zm10.92 32.74c-.03.06-.06.12-.09.18l-.02.03-.04.1c-.07.17-.13.35-.17.55l-.01.06c-.04.2-.06.41-.06.63 0 .9.37 1.71.96 2.3.59.59 1.41.96 2.31.96h66.34c.89 0 1.71-.37 2.3-.96.59-.59.96-1.41.96-2.31 0-.79-.28-1.51-.74-2.07l-.08-.08c-.51-.57-1.2-.97-1.98-1.08-17.72-2.1-46.53-.02-66.8-.02-.63 0-1.22.18-1.71.48-.49.29-.9.72-1.17 1.23zm85.68 18.71h-107.32c.8.66 1.63 1.3 2.5 1.92 2.19 1.57 4.6 3.03 7.23 4.37 1.52.77 3.1 1.5 4.75 2.18s3.37 1.32 5.17 1.92c1.18.39 2.46.79 3.84 1.18 1.32.38 2.58.71 3.79 1.01h53.98c1.18-.25 2.36-.54 3.55-.86 1.26-.34 2.45-.7 3.59-1.08 4.38-1.47 8.42-3.37 12.14-5.68 2.39-1.49 4.65-3.15 6.78-4.96zm-8.17-9.99h-90.52c-.8 0-1.53.31-2.08.82l-.07.08c-.55.55-.9 1.32-.9 2.15 0 .84.34 1.6.89 2.16.55.55 1.32.89 2.16.89h90.52c.8 0 1.54-.31 2.08-.82l.07-.08c.55-.55.9-1.31.9-2.15s-.34-1.6-.89-2.16c-.56-.55-1.32-.89-2.16-.89z"/></svg>