<svg enable-background="new 0 0 120.95 122.88" viewBox="0 0 120.95 122.88" xmlns="http://www.w3.org/2000/svg"><path clip-rule="evenodd" d="m49.4 78.2c3.76 0 6.81 3.05 6.81 6.81s-3.05 6.81-6.81 6.81-6.81-3.05-6.81-6.81c.01-3.76 3.05-6.81 6.81-6.81zm21.92 0c3.76 0 6.81 3.05 6.81 6.81s-3.05 6.81-6.81 6.81-6.81-3.05-6.81-6.81 3.05-6.81 6.81-6.81zm18.83-59.28c3.52-2.42 6.83-5.03 9.95-7.81 3.6-3.2 6.9-6.6 9.96-10.16.98-1.15 2.71-1.28 3.86-.3.11.1.22.2.31.31 3.52 4.16 5.32 12.17 5.19 20.45-.12 7.38-1.76 15.13-5.06 20.66 4.22 7.58 6.6 16.16 6.6 25.25 0 15.37-6.8 29.28-17.8 39.34-10.94 10.01-26.03 16.21-42.68 16.21-16.64 0-31.73-6.19-42.68-16.21-11-10.05-17.8-23.96-17.8-39.33 0-8.84 2.25-17.2 6.25-24.62-3.57-5.56-5.33-13.63-5.46-21.3-.13-8.27 1.67-16.28 5.19-20.44.09-.11.2-.21.31-.31 1.15-.98 2.88-.85 3.86.3 3.06 3.56 6.36 6.96 9.96 10.16 3.22 2.87 6.63 5.55 10.27 8.03 8.87-4.69 19.14-7.37 30.09-7.37 10.78 0 20.91 2.6 29.68 7.14zm-29.67 42.46c8.58 0 16.39 2.56 22.08 6.69 5.94 4.32 9.62 10.36 9.62 17.09 0 6.74-3.67 12.78-9.62 17.09-5.69 4.13-13.49 6.69-22.08 6.69-8.58 0-16.39-2.56-22.08-6.69-5.94-4.32-9.62-10.36-9.62-17.09 0-6.74 3.67-12.78 9.62-17.09 5.68-4.13 13.49-6.69 22.08-6.69zm18.85 11.13c-4.79-3.48-11.46-5.63-18.86-5.63s-14.07 2.15-18.86 5.63c-4.54 3.3-7.34 7.77-7.34 12.65s2.81 9.36 7.34 12.65c4.79 3.48 11.46 5.63 18.86 5.63s14.07-2.15 18.86-5.63c4.54-3.3 7.34-7.77 7.34-12.65.01-4.88-2.8-9.35-7.34-12.65zm-44.87-26.57c3.76 0 6.81 3.05 6.81 6.81s-3.05 6.81-6.81 6.81-6.81-3.05-6.81-6.81 3.05-6.81 6.81-6.81zm51.07 0c3.76 0 6.81 3.05 6.81 6.81s-3.05 6.81-6.81 6.81-6.81-3.05-6.81-6.81 3.05-6.81 6.81-6.81zm25.41-9.21c1.93-4.4 2.91-9.98 2.99-15.4.09-5.37-.67-10.48-2.21-14-2.52 2.75-5.17 5.38-7.98 7.89-2.63 2.35-5.43 4.6-8.39 6.74 2.78 1.81 5.39 3.83 7.8 6.03 2.91 2.66 5.52 5.59 7.79 8.74zm-101.39.64c2.38-3.4 5.14-6.54 8.25-9.38 2.3-2.1 4.78-4.03 7.41-5.78-3.1-2.22-6.01-4.55-8.75-6.99-2.81-2.5-5.47-5.14-7.98-7.89-1.54 3.52-2.3 8.63-2.21 14 .09 5.68 1.16 11.54 3.28 16.04zm89.87-5.39c-9.95-9.1-23.71-14.73-38.94-14.73s-29 5.63-38.94 14.73c-9.9 9.05-16.02 21.55-16.02 35.35s6.12 26.3 16.01 35.35c9.95 9.1 23.71 14.73 38.94 14.73s29-5.63 38.94-14.73c9.89-9.05 16.01-21.55 16.01-35.35.01-13.8-6.11-26.3-16-35.35z" fill-rule="evenodd"/></svg>