<svg enable-background="new 0 0 98.71 122.88" viewBox="0 0 98.71 122.88" xmlns="http://www.w3.org/2000/svg"><path d="m7.41 0h78.71c2.04 0 3.89.83 5.24 2.18 1.34 1.34 2.18 3.2 2.18 5.24v11.36h3.25c1.06 0 1.93.86 1.93 1.93 0 1.06-.86 1.93-1.93 1.93h-3.25v12.93h3.25c1.06 0 1.93.86 1.93 1.93 0 1.06-.86 1.93-1.93 1.93h-3.25v12.93h3.25c1.06 0 1.93.86 1.93 1.93 0 1.06-.86 1.93-1.93 1.93h-3.25v12.93h3.25c1.06 0 1.93.86 1.93 1.93 0 1.06-.86 1.93-1.93 1.93h-3.25v12.89h3.25c1.06 0 1.93.86 1.93 1.93 0 1.06-.86 1.93-1.93 1.93h-3.25v12.93h3.25c1.06 0 1.93.86 1.93 1.93 0 1.06-.86 1.93-1.93 1.93h-3.25v8.93c0 2.04-.83 3.89-2.18 5.24-1.34 1.34-3.2 2.18-5.24 2.18h-78.71c-2.04 0-3.89-.83-5.24-2.18-1.34-1.34-2.18-3.2-2.18-5.24v-108.07c0-2.04.83-3.89 2.18-5.24 1.35-1.34 3.2-2.17 5.24-2.17zm20.25 76.21c0-.48.39-.87.87-.87s.87.39.87.87v16.85.06c0 .25.01.53.02.81.05 2.34.1 4.68-.26 7.06-.04.24-.06.48-.09.74-.17 1.52-.39 3.37-1.83 4.06-.12.06-.25.09-.38.09h-1.87c-.08 0-.15-.01-.22-.03-.54-.11-1.02-.4-1.45-.89-.38-.43-.71-1.03-1-1.79-.03-.08-.05-.16-.05-.24-.13-1.79-.22-3.62-.26-5.48-.03-1.83-.02-3.66.06-5.5v-18.93c-1.78-.61-3.11-1.65-4.05-3.13-1.01-1.6-1.53-3.69-1.64-6.29v-.03c-.06-2 .09-3.79.46-5.37.38-1.62.98-3.03 1.8-4.21.89-1.28 1.96-2.25 3.11-2.93 1.37-.79 2.85-1.16 4.33-1.11s2.94.53 4.24 1.44c1.08.75 2.05 1.79 2.82 3.13 1.07 1.85 1.75 4.65 1.81 7.54.04 2.13-.24 4.31-.94 6.2-.73 1.97-1.9 3.63-3.62 4.63-1.02.59-2.21.94-3.6.97-.48.01-.87-.37-.88-.85s.37-.87.85-.88c1.08-.02 2-.29 2.77-.74 1.33-.77 2.26-2.12 2.86-3.73.62-1.69.88-3.65.84-5.57-.05-2.6-.64-5.09-1.58-6.7-.64-1.1-1.43-1.96-2.31-2.57-1.02-.71-2.16-1.09-3.31-1.13s-2.32.25-3.4.88c-.94.55-1.82 1.35-2.56 2.42-.7 1-1.21 2.21-1.53 3.61-.33 1.44-.47 3.08-.42 4.93v.01c.09 2.29.53 4.1 1.37 5.44.8 1.26 1.99 2.11 3.64 2.56.39.08.69.43.69.85v19.56.03c-.08 1.83-.1 3.64-.06 5.44.03 1.74.12 3.49.25 5.27.2.51.41.88.63 1.14.15.17.3.28.45.32h1.54c.47-.41.61-1.61.73-2.61.03-.29.06-.57.1-.8.35-2.26.3-4.51.25-6.76-.01-.26-.01-.53-.02-.81 0-.03 0-.06 0-.09zm38.02 6.98c-.48 0-.87-.39-.87-.87s.39-.87.87-.87h4.92v-14.71c-.27-4.18-1.24-7.37-2.78-9.78-1.27-1.99-2.93-3.46-4.91-4.52v48.34c0 .28 0 .61.01.84.04 1 .22 2.19 1.14 2.15h.03 1.94c.98-.13.95-1.32.94-2.34 0-.26-.01-.49-.01-.5v-14.68c0-.48.39-.87.87-.87s.87.39.87.87v14.67.47c.03 1.77.07 3.81-2.48 4.09-.05.01-.11.02-.17.02h-1.96c-2.4.08-2.83-2.04-2.91-3.81-.02-.39-.02-.67-.02-.9v-49.73c0-.11.02-.23.07-.34.19-.44.7-.64 1.14-.45 2.82 1.21 5.17 3.06 6.89 5.77 1.69 2.66 2.76 6.12 3.05 10.6 0 .04.01.07.01.11v15.59c0 .48-.39.87-.87.87h-5.77zm-18.27-32.41c0-.48.39-.87.87-.87s.87.39.87.87v14.65c0 .48-.39.87-.87.87s-.87-.39-.87-.87zm5.45.01c0-.48.39-.87.87-.87s.87.39.87.87v15.95c0 .04 0 .07-.01.11-.13 2.23-.66 3.94-1.57 5.12-.98 1.28-2.37 1.95-4.15 2-.48.01-.88-.36-.89-.84s.36-.88.84-.89c1.23-.04 2.17-.47 2.82-1.32.7-.91 1.1-2.3 1.21-4.18v-.01-15.94zm-11.16-.05c0-.48.39-.87.87-.87s.87.39.87.87v15.95.02c.07 1.36.3 2.47.7 3.31.36.74.86 1.23 1.54 1.45.37.12.6.46.6.82v30.04c0 .03 0 .07-.01.1-.04.56.03.95.21 1.18.16.2.43.33.82.38h1.91c.25-.1.46-.26.61-.48.2-.29.34-.71.41-1.23v-25.65c0-.48.39-.87.87-.87s.87.39.87.87v25.7c0 .04 0 .07-.01.11-.1.83-.34 1.51-.71 2.06-.39.56-.91.96-1.57 1.17-.1.04-.22.07-.33.07h-2.08c-.03 0-.06 0-.1-.01-.9-.1-1.59-.44-2.06-1.06-.44-.58-.64-1.36-.56-2.36v-29.44c-.86-.43-1.5-1.14-1.97-2.09-.51-1.04-.79-2.38-.87-3.97-.01-.04-.01-.07-.01-.11zm-24.38-34.39h57.06c1.42 0 2.58 1.16 2.58 2.58v12.33c0 1.42-1.16 2.58-2.58 2.58h-57.06c-1.42 0-2.58-1.16-2.58-2.58v-12.32c0-1.42 1.16-2.59 2.58-2.59zm69.33 90.19c-1.06 0-1.93-.86-1.93-1.93 0-1.06.86-1.93 1.93-1.93h3.05v-12.93h-3.05c-1.06 0-1.93-.86-1.93-1.93 0-1.06.86-1.93 1.93-1.93h3.05v-12.92h-3.05c-1.06 0-1.93-.86-1.93-1.93 0-1.06.86-1.93 1.93-1.93h3.05v-12.92h-3.05c-1.06 0-1.93-.86-1.93-1.93 0-1.06.86-1.93 1.93-1.93h3.05v-12.92h-3.05c-1.06 0-1.93-.86-1.93-1.93 0-1.06.86-1.93 1.93-1.93h3.05v-12.92h-3.05c-1.06 0-1.93-.86-1.93-1.93 0-1.06.86-1.93 1.93-1.93h3.05v-11.36c0-.98-.4-1.87-1.05-2.52s-1.54-1.05-2.52-1.05h-78.72c-.98 0-1.87.4-2.52 1.05s-1.05 1.54-1.05 2.52v108.05c0 .98.4 1.87 1.05 2.52s1.54 1.05 2.52 1.05h78.71c.98 0 1.87-.4 2.52-1.05s1.05-1.54 1.05-2.52v-8.93h-3.04z"/></svg>