<svg enable-background="new 0 0 122.88 93.69" viewBox="0 0 122.88 93.69" xmlns="http://www.w3.org/2000/svg"><path d="m108.91 14.52 7.42-7.65c-2.47-1.48-5.46-2.47-8.74-3.04-3.79-.66-7.97-.75-12.2-.4-2.23.18-4.46.49-6.66.91-2.13.4-4.23.91-6.26 1.5.65 4.16 1.69 7.95 3.15 11.35 1.48 3.47 3.39 6.53 5.72 9.2 2.34 2.68 5.13 4.96 8.37 6.83 3.17 1.84 6.78 3.29 10.83 4.34.83-1.3 1.61-2.6 2.35-3.91.78-1.4 1.51-2.78 2.16-4.15 1.5-3.13 2.68-6.2 3.47-9.07.7-2.55 1.09-4.94 1.12-7.08l-8.97 3.8c-.41.17-.85.16-1.23.01-.38-.16-.7-.46-.88-.87-.13-.3-.16-.62-.1-.92.06-.29.19-.57.4-.8zm-29.53-7.68c-2.03.71-3.95 1.51-5.69 2.38-1.83.91-3.48 1.89-4.89 2.93-.21.15-.45.25-.69.29-.25.04-.51.02-.75-.05h-.01c-1.36-.4-2.72-.71-4.08-.95-1.37-.24-2.74-.4-4.11-.51-1.41-.11-2.81-.16-4.2-.16-1.4-.01-2.81.03-4.23.09-1.99.09-3.3.39-4.11.85-.71.41-.99.94-.97 1.54.14 3.14 5.19 8.3 7.99 11.15l.37.38c.27.28.42.63.46.99.03.37-.06.74-.27 1.05-.9 1.45-1.79 2.95-2.69 4.49-.9 1.55-1.77 3.07-2.61 4.58-.83 1.49-1.66 3.03-2.49 4.6-.81 1.54-1.63 3.11-2.45 4.72-.69 1.84-1.57 3.4-2.63 4.7-1.07 1.31-2.33 2.35-3.77 3.13-1.43.78-3.02 1.29-4.76 1.54-1.73.25-3.61.26-5.63.02-2.73-.43-5.63-1.11-8.36-1.66l-.74-.16-.99-.22c-1.71-.38-4.02-.9-6.29-1.21-2.25-.3-4.45-.4-5.99.06-.6.18-1.06.48-1.3.96-.25.49-.28 1.18-.01 2.13.62 1.32 1.47 2.61 2.49 3.88 1.04 1.29 2.25 2.55 3.59 3.79 1.38 1.28 2.91 2.54 4.52 3.8 1.6 1.25 3.31 2.5 5.05 3.76.18.13.32.29.43.47.11.17.18.37.21.56l.01.06c.15.99.32 1.97.51 2.95.19 1 .4 1.98.62 2.97.22.97.47 1.98.73 3.02.27 1.05.54 2.07.81 3.05.48 1.75 1 3.2 1.53 4.36.54 1.18 1.1 2.06 1.66 2.64.22.23.43.39.62.5.17.1.33.15.48.15.14 0 .3-.04.47-.13.19-.1.4-.25.62-.46.56-.54 1.12-1.35 1.67-2.43s1.08-2.42 1.58-4.03l4.7-14.96c.38-1.41.87-2.65 1.46-3.72.61-1.12 1.32-2.05 2.12-2.82.86-.82 1.81-1.46 2.84-1.91 1.07-.47 2.22-.75 3.44-.85 4.43-.38 8.54-.06 12.76.26h.01c3.66.28 7.42.57 11.5.39s8.52-.82 13.56-2.39c.43-.13.87-.08 1.23.11.37.19.66.52.79.95.02.07.04.15.05.23.18 1.03.38 2.04.61 3.05s.49 2.02.77 3.03c.28 1 .59 1.99.91 2.96s.67 1.94 1.04 2.92c.27.46.55.81.84 1.04.26.21.53.32.8.32.37 0 .81-.16 1.33-.48.54-.34 1.16-.86 1.84-1.57.81-1.38 1.56-2.82 2.23-4.29.68-1.48 1.29-3.01 1.83-4.59.56-1.61 1.04-3.26 1.45-4.94.41-1.69.76-3.41 1.04-5.17.03-.17.08-.32.15-.47.07-.14.15-.26.26-.37l.04-.04c1.49-1.54 2.92-3.16 4.28-4.83 1.29-1.58 2.52-3.21 3.68-4.87-4.06-1.15-7.71-2.68-10.94-4.61-3.37-2.01-6.3-4.43-8.79-7.27-2.51-2.87-4.57-6.15-6.17-9.85-1.54-3.57-2.67-7.51-3.37-11.83zm40.62.9c-1.09 1.09-2.16 2.22-3.23 3.33l3.64-1.54c.08-.04.17-.08.27-.11.09-.03.19-.05.29-.06h.01c.44-.05.86.08 1.18.34.33.26.55.64.61 1.08.32 2.67.03 5.78-.77 9.14-.83 3.46-2.2 7.19-4.02 10.98-1.77 3.7-3.97 7.47-6.5 11.11-2.43 3.51-5.16 6.89-8.11 9.99-.29 1.76-.64 3.47-1.06 5.14-.43 1.72-.92 3.39-1.48 5.01-.58 1.69-1.24 3.34-1.98 4.95s-1.56 3.17-2.45 4.68l-.01.01c-.02.04-.06.09-.1.14-.03.05-.07.09-.12.14l-.02.02c-1.01 1.06-1.97 1.84-2.88 2.36-.95.54-1.85.8-2.71.81-.94.01-1.79-.26-2.55-.79-.73-.51-1.38-1.26-1.94-2.23-.03-.04-.06-.09-.09-.15-.03-.05-.05-.11-.07-.16l-.01-.03c-.39-1.02-.75-2.05-1.1-3.1-.35-1.06-.67-2.11-.97-3.16-.23-.82-.45-1.66-.65-2.51-.17-.72-.33-1.43-.47-2.13-4.84 1.36-9.13 1.9-13.1 2.04-4.07.14-7.79-.14-11.42-.42h-.01c-4.09-.31-8.07-.62-12.26-.26-.86.07-1.66.26-2.39.58-.7.3-1.35.73-1.92 1.28-.58.56-1.11 1.26-1.56 2.11-.45.83-.83 1.81-1.14 2.95-1.67 4.94-3.17 10.08-4.74 15.07-.58 1.85-1.22 3.42-1.89 4.71-.7 1.34-1.44 2.38-2.21 3.11-.52.5-1.07.88-1.63 1.13-.57.25-1.16.37-1.76.36s-1.19-.16-1.76-.44l-.02-.01c-.55-.27-1.08-.67-1.58-1.19-.76-.79-1.49-1.9-2.17-3.34-.65-1.37-1.26-3.06-1.81-5.05-.3-1.08-.58-2.12-.83-3.12-.26-1.01-.51-2.05-.75-3.11-.22-.97-.42-1.92-.6-2.85-.17-.87-.33-1.75-.47-2.64-1.64-1.19-3.25-2.39-4.8-3.6-1.58-1.24-3.1-2.51-4.52-3.82-1.49-1.38-2.84-2.78-3.99-4.23-1.16-1.45-2.13-2.95-2.85-4.51l-.06-.14c-.02-.04-.04-.09-.05-.15-.61-2.07-.5-3.64.15-4.81.65-1.18 1.83-1.94 3.33-2.38 1.95-.58 4.52-.51 7.06-.19 2.52.32 5.01.88 6.84 1.29l.85.19c.27.06.54.12.79.17l8.18 1.63c1.69.19 3.24.19 4.65 0 1.4-.2 2.65-.59 3.76-1.19 1.08-.59 2.04-1.39 2.86-2.41.83-1.03 1.52-2.28 2.07-3.77l.04-.1.05-.12c.79-1.56 1.61-3.13 2.46-4.73.83-1.57 1.69-3.15 2.58-4.76.79-1.43 1.59-2.85 2.4-4.24.77-1.32 1.55-2.64 2.35-3.94-1.54-1.58-3.53-3.66-5.18-5.85-1.75-2.32-3.13-4.78-3.22-6.92-.07-1.59.44-2.97 1.78-3.99 1.28-.98 3.34-1.61 6.4-1.75 1.48-.06 2.95-.1 4.42-.1 1.48.01 2.94.05 4.38.17 1.38.11 2.76.27 4.14.5 1.33.22 2.66.51 3.99.88 3.27-2.27 7.56-4.27 12.32-5.8 4.79-1.55 10.07-2.63 15.28-3.07 4.91-.41 9.79-.24 14.19.67 4.01.83 7.62 2.27 10.49 4.44.06.05.12.1.17.15.31.31.46.71.47 1.12-.01.45-.16.87-.47 1.19zm-20.02.15.03.01c.49.13.94.36 1.32.65.4.3.73.68.97 1.11.24.42.4.89.47 1.38.06.46.04.95-.08 1.43l-.02.07c-.13.48-.35.92-.64 1.3-.3.39-.66.71-1.07.95l-.03.02c-.42.24-.9.41-1.39.47-.48.06-.98.03-1.47-.1s-.94-.36-1.32-.65c-.39-.3-.71-.67-.96-1.08l-.01-.02c-.24-.42-.4-.89-.47-1.38-.06-.47-.04-.95.08-1.44l.02-.07c.13-.48.35-.92.64-1.3.3-.4.68-.72 1.1-.97.42-.24.89-.4 1.38-.47.47-.06.95-.04 1.44.08zm.65-2.4.07.02c.8.22 1.53.59 2.15 1.07.65.5 1.19 1.13 1.6 1.83.4.7.67 1.48.78 2.29.11.78.07 1.6-.14 2.41l-.02.07c-.22.81-.59 1.55-1.08 2.18-.5.65-1.13 1.19-1.83 1.6l-.03.02c-.7.4-1.47.66-2.29.77-.79.1-1.61.06-2.43-.16s-1.55-.59-2.19-1.08c-.66-.5-1.2-1.13-1.61-1.84-.4-.7-.67-1.48-.78-2.29-.11-.78-.07-1.6.14-2.41l.03-.09c.22-.8.59-1.53 1.07-2.15.5-.65 1.13-1.2 1.83-1.6s1.48-.67 2.29-.78c.78-.11 1.6-.07 2.41.14zm-.14.74-.07-.02c-.71-.19-1.43-.22-2.12-.13-.71.1-1.4.33-2.02.69s-1.17.84-1.62 1.41c-.43.55-.75 1.2-.95 1.91l-.02.06c-.19.72-.22 1.43-.13 2.13.1.71.34 1.4.69 2.02.36.62.84 1.18 1.42 1.62.56.43 1.21.75 1.93.95.72.19 1.45.23 2.14.14.72-.1 1.41-.33 2.03-.69l.05-.03c.6-.35 1.14-.82 1.57-1.39.43-.55.75-1.2.95-1.92l.02-.06c.19-.71.22-1.43.13-2.12-.1-.72-.34-1.4-.69-2.02-.36-.62-.84-1.17-1.41-1.61-.55-.42-1.19-.75-1.9-.94z"/></svg>