<svg enable-background="new 0 0 122.88 100" viewBox="0 0 122.88 100" xmlns="http://www.w3.org/2000/svg"><path d="m121.13 36.03c0 .09-.01.18-.02.27-.56 13.42-3.68 25.14-10.11 34.66-6.49 9.61-16.29 16.92-30.16 21.41-.04.01-.08.02-.11.03v6.66c0 .51-.42.94-.94.94h-41.21c-.66 0-1.2-.54-1.2-1.2v-6.44c-.13-.05-.25-.11-.37-.18-12.72-6.02-21.69-13.93-27.63-23.4-5.97-9.5-8.85-20.51-9.38-32.66-.05-1.21.89-2.24 2.1-2.29h.09 3.44c-.44-.48-.8-1.02-1.08-1.63l1.2-.31c-1.32-1.52-2.58-3.08-3.09-5.09l1.22-.33c-1.07-1.83-1.85-3.56-2.03-5.09l1.35.19c-.98-2.38-1.53-4.51-1.48-6.3l1.37.38c-.86-2.08-1.13-4.44-1.04-6.64 1.96.65 3.9 1.66 5.82 3.27l.18-1.38c1.48.5 3.3 1.77 5.36 3.57l.25-1.31c1.43.87 2.79 2.09 4.07 3.73l.71-.99c1.28 1 2.5 2.56 3.68 4.7l.75-1.04c1.01 1.18 1.75 2.78 2.08 4.97l.96-.66c.36.75.6 1.74.66 3.08.44-.6.96-1.17 1.56-1.69 1.41-1.46 3.8-2.35 7.1-2.71l-2.41-.98c-.43-.28-.24-.44.45-.51 3.1-.12 5.82.03 7.86.64-.03-1.73-.76-3.46-1.61-5.19l2.22-1.45.74.52c.59 2.59 1.16 4.99 1.64 6.3 1.45-.07 2.39-.46 3.37-.82 1.21-.44 2.22-1.02 3.1-1.68.67-.44 1.05-.24 1 .9-.2 1.06-.75 1.87-1.58 2.48 1.4-.06 2.69.08 3.87.43 1.81.54 3.32 1.59 4.48 3.19.36.5.68 1.05.97 1.65.08.16.15.33.22.5-.93-8.24 2.91-17.26 12.2-23.24 2.46-1.58 5.03-3.13 7.3-5.31.23 2.52.02 4.54-.86 5.83 2.09.88 3.13.41 4.93-.39.11 1.87.55 3.92-.31 5.43 1.72-.26 2.98-.32 4.4-1.44.49 2.22-.03 4.25-.65 6.11 2.22.05 4.02.43 5.36 1.02-.15-1.11-.17-2.27-.05-3.33 1.54 1.09 3.34 2.25 5.31 2.32-.51-1.83-.9-3.82-.31-5.94 1.32 1.16 2.54 1.29 4.18 1.63-.75-1.51-.22-3.46-.02-5.26 1.7.87 2.68 1.38 4.75.64-.78-1.28-.89-3.25-.53-5.68 2.08 2.23 4.49 3.86 6.78 5.52 5.82 4.21 10.05 9.59 10.77 17.01.38 3.93-.44 7.76-2.2 11.17h.04c-.01.01.49.84.49 1.41zm-60.46-2.61.02.24h-1.32c-.09-1.06-.28-2.15-.59-3.28-.19-.64-.41-1.22-.67-1.76-.25-.54-.53-1.02-.84-1.45-.98-1.36-2.25-2.24-3.79-2.7-1.32-.39-2.84-.48-4.52-.3 1.89.56 3.26 1.7 3.75 3.88.04 1.1-.12 1.53-.58.9-2.42-1.92-4.7-2.87-6.76-2.35.7 1.66 2.07 2.96 3.57 4.19-2.7.04-5.1-1.17-7.28-3.25-2.44 1.2-5.99.87-7.33 2.74-.78.96-.93.47-.72-.84.57-2.09 1.54-3.44 2.96-3.96-2.34.09-3.88-.23-4.76-.88-1.19.4-2.12.93-2.76 1.61-.02.01-.03.03-.05.04-.83.72-1.49 1.55-1.99 2.45l.68-.22c0 1.31-.67 3.09-1.66 5.09l1.23.17-.05.09h33.61c-.05-.14-.1-.28-.15-.41zm3.92.43 6.29.09-1.79-5.62c3.27-2.07 5.68-5.46 7.29-10.06-2.38 3.28-5.01 6-7.57 6.67-3.43-25.25-1.9 5.77-1.02 8.77-2.1-1.43-3.93-3.41-5.48-5.95.38 2.24 1.05 4.32 2.28 6.1zm7.44.11 3.4.05c1.76-2.36 2.86-5.11 3.59-8.09-1.97 3.01-4.27 5.71-6.99 8.04zm28.32.39 2.13.03c-2.46-4.33-7.45-6.17-10.99-9.74-.39-.4-.77-.8-1.13-1.23-.18.05-.36.11-.55.16-2.04.56 2.51 3.71 7.43 7.9 1.12.95 2.19 1.9 3.11 2.88zm6.91.09 3.37.05c-2.68-2.48-4.9-5.34-6.73-8.52.58 3.11 1.58 6 3.36 8.47zm3.95.06 6.08.08c1.37-1.69 2.16-3.73 2.66-5.96-1.64 2.37-3.5 4.19-5.61 5.46 1.01-2.85 4.12-32.76-.52-8.53-2.45-.78-4.84-3.55-6.97-6.84 1.32 4.54 3.47 7.93 6.52 10.11zm-30.16-32.08c3.1-1.41 6.54-2.2 10.17-2.2 4.31 0 8.36 1.11 11.88 3.07 0 .37.01.73.04 1.07.01.16.03.33.05.48-.39-.13-.79-.33-1.28-.58v-.01l-.02-.01c-.95-.49-2.12-.11-2.61.85-.12.24-.19.5-.21.75-.02.28-.07.61-.12.95-.09.59-.17 1.19-.22 1.78-.21-.12-.4-.25-.6-.42-.8-.71-2.03-.63-2.74.17-.23.27-.38.58-.45.9-.32 1.22-.38 2.4-.29 3.53-.59-.33-1.16-.72-1.7-1.1-.87-.62-2.08-.41-2.69.46-.19.28-.31.58-.34.9h-.01c-.04.3-.06.62-.07.93-.26-.05-.54-.1-.81-.14.06-.3.12-.6.16-.91.18-1.23.19-2.52-.11-3.88h-.01c-.06-.28-.18-.54-.37-.78-.65-.85-1.86-.99-2.7-.33-.24.19-.49.34-.75.46-.01-.65-.07-1.3-.13-1.95-.03-.31-.06-.61-.08-.99 0-.26-.05-.52-.16-.77-.43-.98-1.58-1.42-2.56-.99l-.02.01h-.01c-.56.25-1.01.45-1.46.56.04-.2.07-.39.1-.6.07-.38.1-.79.12-1.21zm-64.4 31.4h1.38c-.94-1.24-1.86-2.49-2.76-3.75-3.17-4.44-6.03-8.94-8.63-13.73-.77-1.42-1.51-2.85-2.22-4.3-.1.82 1.87 5.12 3.33 7.85 2.62 4.87 5.68 9.46 8.9 13.93zm81.66 17.79c.26-.87 1.17-1.37 2.04-1.12.87.26 1.37 1.17 1.12 2.04-.68 2.31-1.5 4.62-2.46 6.89-.95 2.24-2.02 4.42-3.2 6.5-.45.79-1.45 1.07-2.24.62s-1.07-1.45-.62-2.24c1.13-1.98 2.15-4.04 3.03-6.15.9-2.13 1.68-4.32 2.33-6.54zm-7.43 16.02c.51-.76 1.53-.96 2.28-.45.76.51.96 1.53.45 2.28-.84 1.25-1.72 2.44-2.63 3.57-.9 1.12-1.85 2.18-2.83 3.18-.64.65-1.68.66-2.33.02s-.66-1.68-.02-2.33c.9-.92 1.78-1.9 2.61-2.94.87-1.06 1.69-2.18 2.47-3.33zm-77.79-1.18c5.46 8.7 13.75 16.02 25.51 21.63h41.24c12.68-4.17 21.62-10.85 27.51-19.58 5.61-8.32 8.51-18.54 9.26-30.27h-112.09c.73 10.49 3.41 20 8.57 28.22z"/></svg>