<svg enable-background="new 0 0 122.88 102.56" viewBox="0 0 122.88 102.56" xmlns="http://www.w3.org/2000/svg"><path d="m102.27 58.85c.23-.79 1.06-1.24 1.85-1.01s1.24 1.06 1.01 1.85c-.61 2.09-1.36 4.18-2.22 6.23-.86 2.02-1.82 3.99-2.89 5.87-.41.71-1.31.96-2.03.56-.71-.41-.96-1.31-.56-2.03 1.02-1.79 1.94-3.65 2.74-5.55.8-1.93 1.51-3.91 2.1-5.92zm-41.25-52.54c.83-.83 2.18-.83 3.02 0 .83.83.83 2.18 0 3.02-3.19 3.2-1.8 5.81-.18 8.84 2.4 4.47 5.14 9.6.51 17.62-.59 1.02-1.89 1.36-2.91.78-1.02-.59-1.36-1.89-.78-2.91 3.45-5.97 1.3-9.98-.58-13.48-2.41-4.54-4.5-8.44.92-13.87zm19.46-5.69c.83-.83 2.18-.83 3.02 0 .83.83.83 2.18 0 3.02-3.19 3.19-1.8 5.81-.18 8.84 2.4 4.47 5.14 9.6.51 17.62-.59 1.02-1.89 1.36-2.91.78-1.02-.59-1.36-1.89-.78-2.91 3.45-5.97 1.3-9.98-.58-13.48-2.42-4.54-4.51-8.44.92-13.87zm19.46 5.69c.83-.83 2.18-.83 3.02 0 .83.83.83 2.18 0 3.02-3.2 3.2-1.8 5.81-.18 8.84 2.4 4.47 5.14 9.6.51 17.62-.59 1.02-1.89 1.36-2.91.78-1.02-.59-1.36-1.89-.78-2.91 3.45-5.97 1.3-9.98-.58-13.48-2.42-4.54-4.51-8.44.92-13.87zm-97.73 16.23c-2.34-2.93-2.66-6.07-1.72-8.73.47-1.34 1.27-2.54 2.3-3.52 1.01-.97 2.25-1.72 3.61-2.16 2.85-.92 6.22-.52 9.19 2.01l.05.04 38.1 32.61h67.14c1.1 0 1.99.89 1.99 1.99 0 .08-.01.16-.01.24-.51 12.13-3.33 22.71-9.13 31.31-5.86 8.68-14.72 15.28-27.24 19.34-.03.01-.07.02-.1.03v6.01c0 .46-.38.84-.84.84h-37.22c-.6 0-1.09-.49-1.09-1.09v-5.82c-.12-.04-.23-.1-.34-.16-11.49-5.43-19.59-12.58-24.96-21.13-5.39-8.58-8-18.53-8.47-29.5-.05-1.09.8-2.02 1.9-2.07h.09v-.01h10.41l-23.37-19.93c-.11-.09-.2-.19-.29-.3zm2.02-7.41c-.5 1.42-.3 3.14.99 4.82l26.44 22.57h15.67l-34.26-29.32-.04-.03c-1.8-1.53-3.78-1.79-5.42-1.26-.79.25-1.5.69-2.09 1.25-.57.55-1.02 1.22-1.29 1.97zm21.07 57.12c4.94 7.86 12.42 14.47 23.04 19.54h37.25c11.45-3.77 19.53-9.8 24.85-17.68 5.07-7.51 7.69-16.51 8.36-27.11h-101.25c.67 9.48 3.09 17.83 7.75 25.25zm69.38 2.32c.48-.67 1.41-.81 2.08-.33s.81 1.41.33 2.08c-.62.86-1.27 1.69-1.94 2.49-.65.78-1.34 1.54-2.06 2.27-.58.59-1.52.59-2.1.02-.59-.58-.59-1.52-.02-2.1.64-.65 1.27-1.35 1.9-2.09.62-.75 1.23-1.53 1.81-2.34z"/></svg>