<svg enable-background="new 0 0 116.65 122.88" viewBox="0 0 116.65 122.88" xmlns="http://www.w3.org/2000/svg"><path d="m64.87.59c.91-.84 2.33-.78 3.17.13s.78 2.33-.13 3.17c-3.99 3.69-6.95 8.15-8.7 13.5-1.62 4.92-2.24 10.62-1.74 17.18.83-.07 1.66-.17 2.49-.31 1.5-.26 3.01-.64 4.53-1.16.08-.03.16-.05.24-.07 5.03-1.13 9.55-1.44 13.63-1.04 4.15.4 7.84 1.54 11.12 3.3 10.62 5.71 15.77 14.11 17.27 23.49.17 1.04.29 2.1.36 3.16h2.64c.88 0 1.6.72 1.6 1.6 0 .15-.02.29-.06.43l-5.39 22.7c-.17.74-.83 1.23-1.55 1.23h-2.37c-.83 1.95-1.75 3.86-2.72 5.73-.35.66-.72 1.35-1.12 2.06h16.91c.88 0 1.6.72 1.6 1.6 0 .55-.28 1.04-.71 1.33l-12.84 9.68 12.96 10.52c.68.56.79 1.56.23 2.24-.31.39-.77.59-1.24.59v.01h-42.58c-2.9.82-5.72 1.03-8.47.75-2.93-.29-5.76-1.13-8.49-2.33-3.59 1.8-7.34 2.87-11.31 2.79-4.37-.09-8.92-1.57-13.69-4.99v-.01c-.06-.04-.12-.09-.17-.14-4.75-4.15-8.64-8.5-11.97-12.91-3.31-4.38-6.08-8.84-8.58-13.24-.69-1.22-1.33-2.45-1.91-3.69h-4.36c-.86 0-1.56-.68-1.6-1.52l-1.91-22.69c-.07-.88.58-1.65 1.46-1.72l.13-.01h1.94c.78-6.63 3.02-12.76 6.49-17.77 3.91-5.65 9.37-9.86 16.05-11.75 5.6-1.59 12.02-1.54 19.06.67v.01c1.72.52 3.45.93 5.16 1.19.89.14 1.77.24 2.66.3-.29-4.15-.17-7.99.34-11.55-5.77 3.27-11.11 4.49-16.05 3.89-12.1-1.49-17.95-11.55-22.7-21.41l6.48-.67c17-2.6 27.15 3.24 33 14.36.26-1.09.56-2.16.9-3.19 2.01-6.14 5.39-11.23 9.94-15.44zm32.19 84.12v-4.83c0-.89.72-1.6 1.6-1.6.89 0 1.6.72 1.6 1.6v4.83h2.81l4.65-19.57h-104.38l1.65 19.57h3.97v-7.75c0-.88.72-1.6 1.6-1.6s1.6.72 1.6 1.6v7.75h6.66v-4.83c0-.89.72-1.6 1.6-1.6.89 0 1.6.72 1.6 1.6v4.83h6.19v-7.75c0-.88.72-1.6 1.6-1.6s1.6.72 1.6 1.6v7.75h6.66v-4.83c0-.89.72-1.6 1.6-1.6s1.6.72 1.6 1.6v4.83h7.34v-7.75c0-.88.72-1.6 1.6-1.6s1.6.72 1.6 1.6v7.75h6.66v-4.83c0-.89.72-1.6 1.6-1.6s1.6.72 1.6 1.6v4.83h6.19v-7.75c0-.88.72-1.6 1.6-1.6s1.6.72 1.6 1.6v7.75h6.66v-4.83c0-.89.72-1.6 1.6-1.6s1.6.72 1.6 1.6v4.83h6.27v-7.75c0-.88.72-1.6 1.6-1.6s1.6.72 1.6 1.6v7.75zm-8.21 3.2h-.05-.05-9.28c-.05 0-.1.01-.15.01s-.1 0-.15-.01h-9.68-.04-.04-9.21c-.05 0-.09.01-.14.01s-.09 0-.14-.01h-9.71-.01-10.38c-.05 0-.09.01-.14.01s-.09 0-.14-.01h-9.72-.01-2.15c.62.99 1.29 1.95 2.01 2.89 2.4 3.14 5.29 5.98 8.51 8.61.96.78 1.11 2.19.33 3.16-.78.96-2.19 1.11-3.16.32-3.49-2.85-6.63-5.93-9.25-9.37-1.35-1.77-2.57-3.64-3.63-5.61h-1.91c-.05 0-.09.01-.14.01s-.09 0-.14-.01h-7.39c.26.49.52.98.8 1.47 2.41 4.23 5.07 8.52 8.26 12.75 3.14 4.16 6.79 8.25 11.21 12.13 3.98 2.84 7.66 4.07 11.12 4.14 3.49.07 6.84-1.01 10.09-2.77.65-.36 1.4-.35 2.03-.06 2.62 1.24 5.3 2.11 8.04 2.39 2.69.27 5.46-.03 8.34-1.11 3.67-1.38 7.46-4.59 10.95-8.47 3.17-3.52 6.06-7.56 8.38-11.28l.19-.43c.1-.23.25-.42.42-.57.97-1.6 1.83-3.13 2.56-4.52.63-1.2 1.23-2.42 1.79-3.65h-8.22zm13.77-25.96c-.07-.83-.17-1.65-.3-2.46-1.29-8.06-5.75-15.29-14.96-20.22-2.77-1.49-5.9-2.45-9.44-2.79-3.58-.35-7.58-.07-12.07.92-1.71.58-3.43 1.01-5.16 1.31-1.67.28-3.36.43-5.06.46-.13.01-.26.01-.38 0-1.88.01-3.76-.14-5.63-.44-1.94-.3-3.87-.75-5.8-1.34l-.02-.01v.01c-6.17-1.94-11.72-2-16.51-.64-5.63 1.6-10.24 5.17-13.57 9.98-2.96 4.27-4.91 9.51-5.65 15.22zm7.65 36.95h-14.01c-2.51 4.09-5.69 8.58-9.19 12.47-2.48 2.75-5.14 5.23-7.88 7.09h31.35l-10.97-8.91c-.13-.09-.25-.2-.35-.34-.53-.7-.39-1.7.31-2.24z"/></svg>