<svg enable-background="new 0 0 122.88 100.01" viewBox="0 0 122.88 100.01" xmlns="http://www.w3.org/2000/svg"><path d="m121.12 36.05c0 .09-.01.18-.02.27-.56 13.42-3.68 25.14-10.11 34.66-6.49 9.61-16.29 16.92-30.16 21.41-.04.01-.08.02-.11.03v6.66c0 .51-.42.94-.94.94h-41.2c-.66 0-1.2-.54-1.2-1.2v-6.44c-.13-.05-.25-.11-.37-.18-12.72-6.02-21.69-13.93-27.63-23.4-5.97-9.51-8.85-20.52-9.38-32.66-.05-1.21.89-2.24 2.1-2.29h.09 3.44l114.96.79h.04c-.01.01.49.84.49 1.41z" fill="#7c7d7e"/><path d="m5.63 33.85c-.44-.48-.8-1.02-1.08-1.63l1.2-.31c-1.32-1.52-2.58-3.08-3.09-5.09l1.22-.33c-1.07-1.83-1.85-3.56-2.03-5.09l1.35.19c-.98-2.38-1.53-4.51-1.48-6.3l1.37.38c-.86-2.08-1.13-4.44-1.04-6.64 1.96.65 3.9 1.66 5.82 3.27l.18-1.38c1.48.5 3.3 1.77 5.36 3.57l.25-1.31c1.43.87 2.79 2.09 4.07 3.73l.71-.99c1.28 1 2.5 2.56 3.68 4.7l.75-1.04c1.01 1.18 1.75 2.78 2.08 4.97l.96-.66c.36.75.6 1.74.66 3.08 1 .97 2.28 1.75 3.75 2.36v4.87c-1.27 0-40.63-.35-24.69-.35zm11.02-.01h1.38c-.94-1.24-1.86-2.49-2.76-3.75-3.17-4.44-6.03-8.94-8.63-13.73-.77-1.42-1.51-2.85-2.22-4.3-.1.82 1.87 5.12 3.33 7.85 2.62 4.87 5.68 9.46 8.9 13.93z" fill="#078407"/><path d="m81.04 2.44c3.1-1.41 6.54-2.2 10.17-2.2 4.31 0 8.36 1.11 11.88 3.07 0 .37.01.73.04 1.07.01.16.03.33.05.48-.39-.13-.79-.33-1.28-.58v-.01l-.02-.01c-.95-.49-2.12-.11-2.61.85-.12.24-.19.5-.21.75-.02.28-.07.61-.12.95-.09.59-.17 1.19-.22 1.78-.21-.12-.4-.25-.6-.42-.8-.71-2.03-.63-2.74.17-.23.27-.38.58-.45.9-.32 1.22-.38 2.4-.29 3.53-.59-.33-1.16-.72-1.7-1.1-.87-.62-2.08-.41-2.69.46-.19.28-.31.58-.34.9h-.01c-.04.3-.06.62-.07.93-.26-.05-.54-.1-.81-.14.06-.3.12-.6.16-.91.18-1.23.19-2.52-.11-3.88h-.01c-.06-.28-.18-.54-.37-.78-.65-.85-1.86-.99-2.7-.33-.24.19-.49.34-.75.46-.01-.65-.07-1.3-.13-1.95-.03-.31-.06-.61-.08-.99 0-.26-.05-.52-.16-.77-.43-.98-1.58-1.42-2.56-.99l-.02.01h-.01c-.56.25-1.01.45-1.46.56.04-.2.07-.39.1-.6.07-.38.1-.79.12-1.21z" fill="#8fba39"/><g fill="#078407"><path d="m107.25 34.46 3.37.05c-2.68-2.48-4.9-5.34-6.73-8.52.58 3.11 1.58 6 3.36 8.47z"/><path d="m100.34 34.37 2.13.03c-2.46-4.33-7.45-6.17-10.99-9.74-.39-.4-.77-.8-1.13-1.23-.18.05-.36.11-.55.16-2.04.56 2.51 3.71 7.43 7.9 1.12.95 2.19 1.9 3.11 2.88z"/><path d="m72.02 33.98 3.4.05c1.76-2.36 2.86-5.11 3.59-8.09-1.97 3.01-4.27 5.71-6.99 8.04z"/><path d="m64.59 33.87 6.29.09-1.79-5.62c3.27-2.07 5.68-5.46 7.29-10.06-2.38 3.28-5.01 6-7.57 6.67-3.43-25.25-1.9 5.77-1.02 8.77-2.1-1.43-3.93-3.41-5.48-5.95.38 2.24 1.05 4.32 2.28 6.1z"/><path d="m59.52 23.96c.69-6.86 4.64-13.77 12.22-18.65 2.46-1.58 5.03-3.13 7.3-5.31.23 2.52.02 4.54-.86 5.83 2.09.88 3.13.41 4.93-.39.11 1.87.55 3.92-.31 5.43 1.72-.26 2.98-.32 4.4-1.44.49 2.22-.03 4.25-.65 6.11 2.22.05 4.02.43 5.36 1.02-.15-1.11-.17-2.27-.05-3.33 1.54 1.09 3.34 2.25 5.31 2.32-.51-1.83-.9-3.82-.31-5.94 1.32 1.16 2.54 1.29 4.18 1.63-.75-1.51-.22-3.46-.02-5.26 1.7.87 2.68 1.38 4.75.64-.78-1.28-.89-3.25-.53-5.68 2.08 2.23 4.49 3.86 6.78 5.52 5.82 4.21 10.05 9.59 10.77 17.01.38 3.9-.43 7.71-2.17 11.1h-3.32c1.36-1.68 2.14-3.72 2.64-5.93-1.64 2.37-3.5 4.19-5.61 5.46 1.01-2.85 4.12-32.76-.52-8.53-2.45-.78-4.84-3.55-6.97-6.84 1.32 4.54 3.47 7.93 6.52 10.11l-2.16 5.68 4.19.05h-53.94c-.95-2.46-1.93-5.09-1.93-7.74z"/></g><path d="m110.62 34.51c-2.68-2.48-4.9-5.34-6.73-8.52.58 3.11 1.58 6.11 3.36 8.58z" fill="#8fba39" stroke="#8fba39" stroke-miterlimit="2.6131" stroke-width=".216"/><path d="m100.34 34.37 2.13.03c-2.46-4.33-7.45-6.17-10.99-9.74-.39-.4-.77-.8-1.13-1.23-.18.05-.36.11-.55.16-2.04.56 2.51 3.71 7.43 7.9 1.12.95 2.19 1.9 3.11 2.88z" fill="#8fba39"/><path d="m72.02 33.98 3.4.05c1.76-2.36 2.86-5.11 3.59-8.09-1.97 3.01-4.27 5.71-6.99 8.04z" fill="#8fba39"/><path d="m64.59 33.87 6.29.09-1.79-5.62c3.27-2.07 5.68-5.46 7.29-10.06-2.38 3.28-5.01 6-7.57 6.67-3.43-25.25-1.9 5.77-1.02 8.77-2.1-1.43-3.93-3.41-5.48-5.95.38 2.24 1.05 4.32 2.28 6.1z" fill="#8fba39"/><path clip-rule="evenodd" d="m42.94 15.71c.58 2.54 1.14 4.9 1.61 6.19 1.42-.07 2.34-.45 3.31-.81 1.19-.44 2.18-1 3.05-1.65.66-.43 1.03-.23.98.88-.2 1.04-.74 1.84-1.56 2.44h.13c-.16.01-.32.03-.48.05 2.05.6 3.55 1.85 4.07 4.22.04 1.19-.28 1.74-.78 1.06-2.63-2.09-4.96-3.2-7.2-2.63.75 1.8 2.33 3.04 3.96 4.38-2.94.04-5.62-1.1-7.99-3.37-2.65 1.3-6.51.94-7.97 2.97-.85 1.04-1.02.51-.79-.91.62-2.27 1.68-3.73 3.22-4.31-2.27.09-3.89-.44-4.88-1 1.16-.43 2.58-.48 4.18-.66l-2.37-.96c-.42-.27-.24-.44.44-.5 3.04-.12 5.71.03 7.72.63-.03-1.7-.75-3.39-1.58-5.09l2.18-1.42z" fill="#75aa00" fill-rule="evenodd"/><path clip-rule="evenodd" d="m49.73 22.75c1.98.58 3.42 1.79 3.93 4.07.04 1.15-.12 1.6-.61.94-2.54-2.01-4.93-3.01-7.09-2.47.73 1.74 2.17 3.1 3.75 4.39-2.83.04-5.34-1.22-7.63-3.41-2.56 1.25-6.28.91-7.69 2.87-.82 1.01-.98.5-.76-.88.6-2.19 1.62-3.6 3.11-4.15-2.45.09-4.06-.24-4.99-.93-1.25.42-2.22.98-2.89 1.69-.02.02-.03.03-.05.05-.94.82-1.68 1.76-2.21 2.8-.57 1.09-.92 2.28-1.07 3.53-.12.96-.14 1.95-.07 2.95h35.26c0-1.56-.22-3.22-.68-4.95-.2-.67-.43-1.28-.7-1.84s-.56-1.07-.89-1.52c-1.03-1.42-2.36-2.35-3.97-2.83-1.39-.42-2.98-.51-4.75-.31z" fill="#f23329" fill-rule="evenodd"/><path d="m36.07 24.43c.21-.13.43-.24.67-.32-.22.01-.43.01-.64.01-.01.12-.02.22-.03.31zm-7.79.98c-.69.7-1.26 1.47-1.69 2.31-.57 1.09-.92 2.28-1.07 3.53-.12.96-.14 1.95-.07 2.95h2.58c-.54-2.55-.52-5.47.25-8.79z" style="fill-rule:evenodd;clip-rule:evenodd;fill:#d61d1d;stroke:#f60d11;stroke-width:.216;stroke-miterlimit:2.6131"/><path clip-rule="evenodd" d="m56.52 34.19c-.02-.32-.05-.63-.1-.92-.2-1.4-.65-2.6-1.29-3.66-.17-.28-.08-.65.2-.83.28-.17.65-.08.83.2.72 1.19 1.22 2.54 1.45 4.11.05.36.09.72.11 1.1z" fill="#d61d1d" fill-rule="evenodd"/><path d="m10.81 66.6c5.72 9.43 14.41 17.36 26.73 23.45h43.21c13.29-4.52 22.65-11.76 28.83-21.22 5.88-9.02 8.92-20.1 9.7-32.81h-117.45c.77 11.36 3.58 21.67 8.98 30.58z" fill="#fff"/><path d="m98.3 51.62c.26-.87 1.17-1.37 2.04-1.12.87.26 1.37 1.17 1.12 2.04-.68 2.31-1.5 4.62-2.46 6.89-.95 2.24-2.02 4.42-3.2 6.5-.45.79-1.45 1.07-2.24.62s-1.07-1.45-.62-2.24c1.13-1.98 2.15-4.04 3.03-6.15.9-2.13 1.68-4.32 2.33-6.54zm-7.43 16.02c.51-.76 1.53-.96 2.28-.45.76.51.96 1.53.45 2.28-.84 1.25-1.72 2.44-2.63 3.57-.9 1.12-1.85 2.18-2.83 3.18-.64.65-1.68.66-2.33.02s-.66-1.68-.02-2.33c.9-.92 1.78-1.9 2.61-2.94.87-1.06 1.69-2.18 2.47-3.33z" fill="#7c7d7e"/><path d="m117.42 34.57-6.2-.01 1.99-5.74c-3.16-2.23-5.09-5.57-6.47-10.24 2.21 3.39 4.4 6.07 6.92 6.87 4.84-24.51 1.76 5.94.67 8.65 2.17-1.32 4.01-3.05 5.68-5.51-.5 2.22-1.27 4.26-2.59 5.98z" fill="#8fba39"/></svg>